<?xml version="1.0" standalone="no"?>
<!DOCTYPE svg PUBLIC "-//W3C//DTD SVG 20010904//EN"
 "http://www.w3.org/TR/2001/REC-SVG-20010904/DTD/svg10.dtd">
<svg version="1.0" xmlns="http://www.w3.org/2000/svg"
 width="1024.000000pt" height="1024.000000pt" viewBox="0 0 1024.000000 1024.000000"
 preserveAspectRatio="xMidYMid meet">
<metadata>
Created by potrace 1.14, written by Peter Selinger 2001-2017
</metadata>
<g transform="translate(0.000000,1024.000000) scale(0.100000,-0.100000)"
fill="#000000" stroke="none">
<path d="M1014 9964 c-3 -12 -1 -82 5 -155 20 -258 22 -388 29 -2339 10 -2879
10 -2765 -11 -2827 -46 -131 -186 -213 -367 -215 -36 0 -101 3 -145 7 l-80 8
33 -37 c17 -20 32 -40 32 -45 0 -4 11 -21 25 -37 37 -43 33 -63 -4 -22 -17 17
-23 19 -36 8 -19 -16 -20 -41 -1 -34 8 3 25 -4 37 -15 13 -12 17 -21 10 -21
-7 0 -11 -6 -9 -12 3 -7 12 -13 21 -13 9 0 26 -14 39 -31 13 -17 29 -29 36
-26 17 6 42 -17 42 -39 0 -11 9 -19 23 -21 12 -2 22 -10 22 -18 0 -8 -10 -16
-22 -18 -13 -2 -23 2 -23 8 0 16 -26 40 -34 32 -4 -4 -16 4 -27 18 l-19 25 -6
-23 c-10 -36 -39 -24 -38 16 2 29 -1 32 -30 32 -24 1 -43 12 -84 53 -28 29
-78 66 -110 82 -31 17 -59 33 -62 36 -10 12 -49 16 -53 6 -4 -14 -69 38 -79
64 -4 12 -17 19 -32 19 -15 0 -33 11 -45 27 -12 14 -23 24 -26 22 -2 -3 -7
-319 -11 -704 -7 -743 -4 -816 38 -939 28 -80 113 -200 194 -275 130 -119 364
-213 599 -242 110 -14 320 -6 433 16 210 41 505 170 671 295 133 99 289 274
368 413 94 165 171 423 193 647 14 142 7 608 -10 640 -5 10 -7 28 -2 39 4 11
4 113 1 228 -10 309 -19 838 -23 1278 -2 215 -6 464 -10 555 -19 499 -30 696
-38 707 -5 6 -5 12 1 15 6 2 6 37 1 93 -11 110 -17 335 -10 335 3 0 23 -82 44
-182 21 -101 51 -241 68 -313 34 -152 91 -435 183 -910 37 -187 84 -412 105
-500 55 -224 92 -392 165 -750 79 -385 136 -637 210 -920 97 -373 207 -839
281 -1195 18 -85 50 -227 65 -282 l10 -37 292 5 c160 2 384 9 497 14 113 6
226 10 252 10 44 -1 48 1 53 27 3 15 12 51 20 78 22 77 101 407 130 540 56
260 154 674 190 810 29 106 156 626 180 735 9 41 25 111 35 155 10 44 30 136
44 205 28 133 44 204 106 480 22 96 60 264 85 373 24 108 49 205 54 215 5 10
14 40 19 67 58 294 75 371 83 380 5 5 9 20 9 35 0 14 5 32 10 40 7 11 9 4 8
-25 0 -22 6 -101 15 -175 9 -74 22 -178 27 -230 6 -52 24 -189 40 -305 16
-115 38 -284 50 -375 11 -91 27 -208 35 -260 8 -52 26 -176 39 -275 27 -195
52 -359 115 -755 63 -396 86 -530 152 -885 33 -181 69 -386 79 -455 11 -69 30
-191 42 -272 l23 -148 241 0 c133 0 256 -3 273 -6 26 -5 31 -3 31 12 1 18 1
18 11 1 10 -16 38 -17 476 -12 330 3 469 8 474 16 5 8 8 8 11 -1 5 -16 196
-14 215 2 8 6 16 8 20 4 3 -3 1 -6 -6 -6 -7 0 -9 -5 -6 -11 4 -6 14 -8 23 -4
9 3 161 6 338 5 l323 0 6 47 c4 27 15 95 26 153 20 102 36 217 44 310 3 25 9
68 14 95 9 46 58 416 67 510 2 21 13 87 24 145 19 102 53 314 70 435 4 33 20
134 34 225 14 91 32 212 40 270 8 58 28 170 44 250 32 158 39 198 107 590 26
146 50 285 55 310 4 25 20 113 34 195 27 153 69 365 106 535 12 52 34 167 51
255 17 88 32 170 35 183 5 27 24 20 24 -9 0 -11 6 -41 14 -67 7 -26 24 -92 36
-147 55 -248 72 -322 103 -435 30 -107 289 -887 362 -1085 26 -71 77 -215 115
-320 108 -303 114 -316 153 -337 19 -10 20 -7 13 248 -4 143 -9 279 -11 304
-18 241 -23 714 -24 2375 0 732 -1 1357 -2 1390 -1 33 -2 89 -1 125 1 75 1 71
-1 215 -1 61 1 243 3 407 3 163 2 299 -2 303 -7 7 -860 11 -1313 6 -132 -1
-277 1 -322 5 l-81 7 -15 -29 c-8 -17 -25 -77 -36 -134 -12 -58 -32 -161 -46
-230 -14 -69 -38 -188 -54 -265 -17 -77 -37 -187 -46 -243 -9 -57 -41 -219
-71 -360 -88 -415 -112 -538 -174 -887 -48 -275 -116 -634 -192 -1010 -212
-1061 -191 -963 -354 -1633 -30 -122 -54 -231 -54 -242 0 -10 -3 -27 -7 -37
-11 -29 -81 409 -128 812 -15 121 -35 265 -45 320 -11 55 -31 169 -45 253 -14
85 -31 181 -39 215 -8 34 -22 130 -31 212 -9 83 -25 220 -35 305 -11 85 -27
218 -36 295 -8 77 -22 152 -29 168 -9 17 -10 27 -3 27 7 0 8 22 3 68 -4 37 -9
83 -10 102 -4 49 -15 145 -25 215 -5 33 -8 67 -7 75 0 8 -2 31 -5 50 -4 19
-12 92 -18 162 -6 70 -17 157 -25 195 -7 37 -16 91 -19 118 -3 28 -12 88 -20
135 -8 47 -17 116 -21 153 -4 37 -11 82 -16 100 -5 18 -12 59 -14 92 -3 33
-10 78 -15 100 -24 100 -64 420 -90 720 -14 165 -13 162 -65 167 -24 1 -385 4
-802 6 l-759 3 -21 -44 c-45 -94 -136 -475 -278 -1172 -165 -810 -226 -1116
-235 -1185 -17 -121 -149 -742 -224 -1050 -14 -58 -26 -121 -27 -140 l-1 -35
-9 40 c-6 22 -14 67 -19 100 -26 175 -52 302 -116 570 -59 251 -82 356 -99
450 -16 88 -50 251 -85 410 -17 79 -56 254 -85 390 -33 150 -47 222 -51 265
-3 25 -9 54 -14 65 -5 11 -11 34 -13 50 -10 67 -50 260 -87 420 -44 191 -96
427 -103 465 -3 14 -14 70 -25 125 -11 55 -25 129 -31 164 -5 35 -17 74 -25
86 -15 23 -18 23 -138 18 -68 -2 -126 -9 -129 -15 -4 -7 -8 -7 -10 1 -3 8
-330 11 -1147 13 l-1143 3 -5 -21z m431 -4 c3 -5 1 -10 -4 -10 -6 0 -11 5 -11
10 0 6 2 10 4 10 3 0 8 -4 11 -10z m975 -24 c0 -3 -4 -8 -10 -11 -5 -3 -10 -1
-10 4 0 6 5 11 10 11 6 0 10 -2 10 -4z m2892 -28 c-5 -7 -12 -22 -15 -33 -5
-20 -5 -20 -6 1 0 11 4 25 11 32 16 16 23 15 10 0z m93 2 c-3 -5 -10 -10 -16
-10 -5 0 -9 5 -9 10 0 6 7 10 16 10 8 0 12 -4 9 -10z m3300 -29 c3 -5 1 -12
-5 -16 -5 -3 -10 1 -10 9 0 18 6 21 15 7z m-5490 -11 c3 -5 1 -10 -4 -10 -6 0
-11 5 -11 10 0 6 2 10 4 10 3 0 8 -4 11 -10z m65 -4 c0 -3 -4 -8 -10 -11 -5
-3 -10 -1 -10 4 0 6 5 11 10 11 6 0 10 -2 10 -4z m5660 -6 c0 -5 -7 -10 -16
-10 -8 0 -12 5 -9 10 3 6 10 10 16 10 5 0 9 -4 9 -10z m-3499 -30 c-25 -22
-61 -27 -61 -9 0 6 9 9 20 6 10 -3 24 1 31 9 6 8 17 14 23 14 6 -1 0 -10 -13
-20z m699 10 c0 -5 -2 -10 -4 -10 -3 0 -8 5 -11 10 -3 6 -1 10 4 10 6 0 11 -4
11 -10z m-3038 -52 c-9 -9 -12 -7 -12 12 0 19 3 21 12 12 9 -9 9 -15 0 -24z
m2418 22 c0 -5 -4 -10 -10 -10 -5 0 -10 5 -10 10 0 6 5 10 10 10 6 0 10 -4 10
-10z m3587 4 c-3 -3 -12 -4 -19 -1 -8 3 -5 6 6 6 11 1 17 -2 13 -5z m-3517
-19 c0 -9 -6 -12 -15 -9 -8 4 -12 10 -9 15 8 14 24 10 24 -6z m830 5 c0 -5 -7
-10 -16 -10 -8 0 -12 5 -9 10 3 6 10 10 16 10 5 0 9 -4 9 -10z m-1000 -10 c0
-5 -4 -10 -10 -10 -5 0 -10 5 -10 10 0 6 5 10 10 10 6 0 10 -4 10 -10z m540
-10 c0 -5 -5 -10 -11 -10 -5 0 -7 5 -4 10 3 6 8 10 11 10 2 0 4 -4 4 -10z
m780 -10 c0 -5 -2 -10 -4 -10 -3 0 -8 5 -11 10 -3 6 -1 10 4 10 6 0 11 -4 11
-10z m-3660 -20 c0 -5 -2 -10 -4 -10 -3 0 -8 5 -11 10 -3 6 -1 10 4 10 6 0 11
-4 11 -10z m240 -10 c0 -5 -4 -10 -10 -10 -5 0 -10 5 -10 10 0 6 5 10 10 10 6
0 10 -4 10 -10z m5300 0 c0 -5 -4 -10 -10 -10 -5 0 -10 5 -10 10 0 6 5 10 10
10 6 0 10 -4 10 -10z m238 -19 c3 -8 -1 -12 -9 -9 -7 2 -15 10 -17 17 -3 8 1
12 9 9 7 -2 15 -10 17 -17z m-2878 -1 c0 -5 -5 -10 -11 -10 -5 0 -7 5 -4 10 3
6 8 10 11 10 2 0 4 -4 4 -10z m307 -22 c-3 -8 -6 -5 -6 6 -1 11 2 17 5 13 3
-3 4 -12 1 -19z m-197 -22 c0 -3 -4 -8 -10 -11 -5 -3 -10 -1 -10 4 0 6 5 11
10 11 6 0 10 -2 10 -4z m2810 -17 c0 -5 -4 -9 -10 -9 -5 0 -10 7 -10 16 0 8 5
12 10 9 6 -3 10 -10 10 -16z m-3110 -9 c0 -5 -4 -10 -9 -10 -6 0 -13 5 -16 10
-3 6 1 10 9 10 9 0 16 -4 16 -10z m630 0 c0 -5 -4 -10 -10 -10 -5 0 -10 5 -10
10 0 6 5 10 10 10 6 0 10 -4 10 -10z m-3120 -30 c0 -5 -4 -10 -10 -10 -5 0
-10 5 -10 10 0 6 5 10 10 10 6 0 10 -4 10 -10z m-1750 -70 c0 -5 -4 -10 -10
-10 -5 0 -10 5 -10 10 0 6 5 10 10 10 6 0 10 -4 10 -10z m1624 -45 c3 -8 1
-15 -4 -15 -6 0 -10 7 -10 15 0 8 2 15 4 15 2 0 6 -7 10 -15z m2806 -76 c0 -5
-4 -9 -10 -9 -5 0 -10 7 -10 16 0 8 5 12 10 9 6 -3 10 -10 10 -16z m435 -9 c3
-5 1 -10 -4 -10 -6 0 -11 5 -11 10 0 6 2 10 4 10 3 0 8 -4 11 -10z m3276 -33
c-1 -12 -15 -9 -19 4 -3 6 1 10 8 8 6 -3 11 -8 11 -12z m-2987 -41 c-3 -8 -12
-12 -20 -9 -17 6 -9 23 11 23 8 0 12 -6 9 -14z m-39 -66 c3 -5 1 -10 -4 -10
-6 0 -11 5 -11 10 0 6 2 10 4 10 3 0 8 -4 11 -10z m1865 0 c0 -5 -5 -10 -11
-10 -5 0 -7 5 -4 10 3 6 8 10 11 10 2 0 4 -4 4 -10z m-1760 -15 c0 -8 -7 -15
-15 -15 -16 0 -20 12 -8 23 11 12 23 8 23 -8z m2510 -5 c0 -5 -2 -10 -4 -10
-3 0 -8 5 -11 10 -3 6 -1 10 4 10 6 0 11 -4 11 -10z m-3020 -10 c0 -5 -4 -10
-10 -10 -5 0 -10 5 -10 10 0 6 5 10 10 10 6 0 10 -4 10 -10z m285 -10 c3 -5 1
-10 -4 -10 -6 0 -11 5 -11 10 0 6 2 10 4 10 3 0 8 -4 11 -10z m-215 -66 c0 -8
-4 -12 -10 -9 -5 3 -10 10 -10 16 0 5 5 9 10 9 6 0 10 -7 10 -16z m230 6 c0
-5 -7 -10 -15 -10 -8 0 -15 5 -15 10 0 6 7 10 15 10 8 0 15 -4 15 -10z m-680
-180 c0 -5 -2 -10 -4 -10 -3 0 -8 5 -11 10 -3 6 -1 10 4 10 6 0 11 -4 11 -10z
m860 -174 c0 -3 -4 -8 -10 -11 -5 -3 -10 -1 -10 4 0 6 5 11 10 11 6 0 10 -2
10 -4z m-490 -126 c0 -5 -4 -10 -10 -10 -5 0 -10 5 -10 10 0 6 5 10 10 10 6 0
10 -4 10 -10z m-454 -47 c-10 -10 -19 5 -10 18 6 11 8 11 12 0 2 -7 1 -15 -2
-18z m574 23 c0 -3 -4 -8 -10 -11 -5 -3 -10 -1 -10 4 0 6 5 11 10 11 6 0 10
-2 10 -4z m-3065 -355 c3 -5 -6 -22 -20 -37 -20 -21 -25 -23 -25 -10 0 38 30
70 45 47z m351 -138 c-10 -10 -19 5 -10 18 6 11 8 11 12 0 2 -7 1 -15 -2 -18z
m-426 -67 c0 -11 -19 -15 -25 -6 -3 5 1 10 9 10 9 0 16 -2 16 -4z m-377 -86
c-3 -11 -9 -20 -14 -20 -10 0 -12 24 -2 33 13 13 21 7 16 -13z m737 -179 c0
-24 -27 -48 -40 -35 -5 5 -7 19 -4 32 8 27 44 30 44 3z m-684 -198 c-10 -10
-19 5 -10 18 6 11 8 11 12 0 2 -7 1 -15 -2 -18z m-96 13 c0 -3 -4 -8 -10 -11
-5 -3 -10 -1 -10 4 0 6 5 11 10 11 6 0 10 -2 10 -4z m210 -30 c0 -2 -7 -6 -15
-10 -8 -3 -15 -1 -15 4 0 6 7 10 15 10 8 0 15 -2 15 -4z m3575 -447 c11 -17
-1 -21 -15 -4 -8 9 -8 15 -2 15 6 0 14 -5 17 -11z m255 -218 c0 -6 -4 -13 -10
-16 -5 -3 -10 1 -10 9 0 9 5 16 10 16 6 0 10 -4 10 -9z m-3810 -201 c0 -5 -4
-10 -10 -10 -5 0 -10 5 -10 10 0 6 5 10 10 10 6 0 10 -4 10 -10z m370 0 c0 -5
-4 -10 -10 -10 -5 0 -10 5 -10 10 0 6 5 10 10 10 6 0 10 -4 10 -10z m337 -22
c-3 -8 -6 -5 -6 6 -1 11 2 17 5 13 3 -3 4 -12 1 -19z m4943 -194 c0 -17 -22
-14 -28 4 -2 7 3 12 12 12 9 0 16 -7 16 -16z m-1690 -74 c0 -5 -5 -10 -11 -10
-5 0 -7 5 -4 10 3 6 8 10 11 10 2 0 4 -4 4 -10z m20 -64 c0 -3 -4 -8 -10 -11
-5 -3 -10 -1 -10 4 0 6 5 11 10 11 6 0 10 -2 10 -4z m1780 -157 c0 -6 -4 -7
-10 -4 -5 3 -10 11 -10 16 0 6 5 7 10 4 6 -3 10 -11 10 -16z m-6850 1 c0 -5
-4 -10 -10 -10 -5 0 -10 5 -10 10 0 6 5 10 10 10 6 0 10 -4 10 -10z m4520
-280 c0 -5 -4 -10 -10 -10 -5 0 -10 5 -10 10 0 6 5 10 10 10 6 0 10 -4 10 -10z
m2530 -130 c0 -5 -7 -10 -16 -10 -8 0 -12 5 -9 10 3 6 10 10 16 10 5 0 9 -4 9
-10z m-495 -49 c-3 -6 -11 -11 -17 -11 -6 0 -6 6 2 15 14 17 26 13 15 -4z
m-6385 -41 c0 -5 -5 -10 -11 -10 -5 0 -7 5 -4 10 3 6 8 10 11 10 2 0 4 -4 4
-10z m-444 -177 c-10 -10 -19 5 -10 18 6 11 8 11 12 0 2 -7 1 -15 -2 -18z
m1804 11 c0 -8 -4 -12 -10 -9 -5 3 -10 10 -10 16 0 5 5 9 10 9 6 0 10 -7 10
-16z m3117 -106 c-3 -8 -6 -5 -6 6 -1 11 2 17 5 13 3 -3 4 -12 1 -19z m-4527
2 c0 -5 -2 -10 -4 -10 -3 0 -8 5 -11 10 -3 6 -1 10 4 10 6 0 11 -4 11 -10z
m37 -102 c-3 -7 -5 -2 -5 12 0 14 2 19 5 13 2 -7 2 -19 0 -25z m2993 22 c0 -5
-4 -10 -10 -10 -5 0 -10 5 -10 10 0 6 5 10 10 10 6 0 10 -4 10 -10z m-1590
-10 c0 -5 -2 -10 -4 -10 -3 0 -8 5 -11 10 -3 6 -1 10 4 10 6 0 11 -4 11 -10z
m-1394 -167 c-10 -10 -19 5 -10 18 6 11 8 11 12 0 2 -7 1 -15 -2 -18z m4534 7
c0 -5 -5 -10 -11 -10 -5 0 -7 5 -4 10 3 6 8 10 11 10 2 0 4 -4 4 -10z m2100
-40 c0 -5 -7 -10 -15 -10 -8 0 -15 5 -15 10 0 6 7 10 15 10 8 0 15 -4 15 -10z
m-7120 -30 c0 -5 -4 -10 -10 -10 -5 0 -10 5 -10 10 0 6 5 10 10 10 6 0 10 -4
10 -10z m4930 -25 c7 -9 10 -18 7 -22 -8 -7 -37 15 -37 28 0 14 16 11 30 -6z
m-4540 -5 c0 -5 -4 -10 -10 -10 -5 0 -10 5 -10 10 0 6 5 10 10 10 6 0 10 -4
10 -10z m6745 -20 c3 -5 1 -10 -4 -10 -6 0 -11 5 -11 10 0 6 2 10 4 10 3 0 8
-4 11 -10z m-1788 -156 c-3 -3 -12 -4 -19 -1 -8 3 -5 6 6 6 11 1 17 -2 13 -5z
m1913 -4 c0 -5 -4 -10 -10 -10 -5 0 -10 5 -10 10 0 6 5 10 10 10 6 0 10 -4 10
-10z m-6930 -10 c0 -5 -4 -10 -10 -10 -5 0 -10 5 -10 10 0 6 5 10 10 10 6 0
10 -4 10 -10z m2832 -42 c-6 -6 -19 -7 -29 -4 -16 7 -16 9 7 28 23 19 25 19
28 3 2 -9 -1 -22 -6 -27z m-2922 -108 c0 -5 -4 -10 -10 -10 -5 0 -10 5 -10 10
0 6 5 10 10 10 6 0 10 -4 10 -10z m95 -49 c3 -5 1 -12 -5 -16 -5 -3 -10 1 -10
9 0 18 6 21 15 7z m165 -89 c0 -13 -12 -22 -22 -16 -10 6 -1 24 13 24 5 0 9
-4 9 -8z m4150 -72 c0 -5 -4 -10 -10 -10 -5 0 -10 5 -10 10 0 6 5 10 10 10 6
0 10 -4 10 -10z m1910 -20 c0 -5 -5 -10 -11 -10 -5 0 -7 5 -4 10 3 6 8 10 11
10 2 0 4 -4 4 -10z m-6430 -30 c0 -5 -4 -10 -10 -10 -5 0 -10 5 -10 10 0 6 5
10 10 10 6 0 10 -4 10 -10z m425 -120 c-3 -5 -11 -10 -16 -10 -6 0 -7 5 -4 10
3 6 11 10 16 10 6 0 7 -4 4 -10z m-130 -30 c3 -5 1 -10 -4 -10 -6 0 -11 5 -11
10 0 6 2 10 4 10 3 0 8 -4 11 -10z m2135 -100 c0 -5 -2 -10 -4 -10 -3 0 -8 5
-11 10 -3 6 -1 10 4 10 6 0 11 -4 11 -10z m-2650 -70 c0 -5 -5 -10 -11 -10 -5
0 -7 5 -4 10 3 6 8 10 11 10 2 0 4 -4 4 -10z m-1270 -24 c0 -3 -4 -8 -10 -11
-5 -3 -10 -1 -10 4 0 6 5 11 10 11 6 0 10 -2 10 -4z m1280 -18 c0 -16 -3 -19
-11 -11 -6 6 -8 16 -5 22 11 17 16 13 16 -11z m4810 8 c0 -3 -4 -8 -10 -11 -5
-3 -10 -1 -10 4 0 6 5 11 10 11 6 0 10 -2 10 -4z m-5670 -16 c0 -5 -4 -10 -10
-10 -5 0 -10 5 -10 10 0 6 5 10 10 10 6 0 10 -4 10 -10z m790 -16 c0 -8 -4
-12 -10 -9 -5 3 -10 13 -10 21 0 8 5 12 10 9 6 -3 10 -13 10 -21z m3220 -32
c0 -15 -2 -15 -10 -2 -13 20 -13 33 0 25 6 -3 10 -14 10 -23z m2110 -22 c0 -5
-5 -10 -11 -10 -5 0 -7 5 -4 10 3 6 8 10 11 10 2 0 4 -4 4 -10z m-6156 -39
c21 -23 6 -37 -24 -21 -21 11 -25 22 -13 33 10 11 19 8 37 -12z m104 1 c2 -7
-3 -12 -12 -12 -9 0 -16 7 -16 16 0 17 22 14 28 -4z m3417 8 c3 -5 1 -10 -4
-10 -6 0 -11 5 -11 10 0 6 2 10 4 10 3 0 8 -4 11 -10z m-2719 -17 c16 -21 18
-53 4 -53 -5 0 -10 10 -10 23 0 13 -5 28 -12 35 -7 7 -8 12 -4 12 5 0 15 -8
22 -17z m-650 -60 c-2 -3 -9 -2 -15 1 -7 5 -6 16 2 34 l12 27 3 -29 c2 -15 1
-30 -2 -33z m3634 37 c0 -5 -2 -10 -4 -10 -3 0 -8 5 -11 10 -3 6 -1 10 4 10 6
0 11 -4 11 -10z m-3246 -55 c-6 -16 -24 -21 -24 -7 0 11 11 22 21 22 5 0 6 -7
3 -15z m-219 -15 c-3 -5 -13 -10 -21 -10 -8 0 -12 5 -9 10 3 6 13 10 21 10 8
0 12 -4 9 -10z m75 -5 c0 -11 -33 -55 -40 -55 -5 0 -2 14 6 30 13 26 34 41 34
25z m3255 -25 c-3 -5 -11 -10 -16 -10 -6 0 -7 5 -4 10 3 6 11 10 16 10 6 0 7
-4 4 -10z m333 -39 c3 -8 -1 -12 -9 -9 -7 2 -15 10 -17 17 -3 8 1 12 9 9 7 -2
15 -10 17 -17z m-3438 -40 c0 -5 -9 -7 -20 -4 -11 3 -20 7 -20 9 0 2 9 4 20 4
11 0 20 -4 20 -9z m72 -13 c-6 -6 -16 -7 -22 -3 -9 6 -9 9 1 16 17 10 34 0 21
-13z m-177 -8 c-3 -5 -10 -10 -16 -10 -5 0 -9 5 -9 10 0 6 7 10 16 10 8 0 12
-4 9 -10z m-358 -82 c-3 -8 -6 -5 -6 6 -1 11 2 17 5 13 3 -3 4 -12 1 -19z
m183 2 c0 -5 -4 -10 -10 -10 -5 0 -10 5 -10 10 0 6 5 10 10 10 6 0 10 -4 10
-10z m140 -60 c0 -5 -5 -10 -11 -10 -5 0 -7 5 -4 10 3 6 8 10 11 10 2 0 4 -4
4 -10z m5580 -30 c0 -5 -7 -10 -16 -10 -8 0 -12 5 -9 10 3 6 10 10 16 10 5 0
9 -4 9 -10z m243 4 c10 -10 -12 -44 -28 -44 -21 0 -28 18 -13 34 14 16 31 20
41 10z m-2633 -38 c0 -3 -4 -8 -10 -11 -5 -3 -10 -1 -10 4 0 6 5 11 10 11 6 0
10 -2 10 -4z m4340 -6 c0 -5 -4 -10 -10 -10 -5 0 -10 5 -10 10 0 6 5 10 10 10
6 0 10 -4 10 -10z m-7120 -40 c0 -5 -4 -10 -10 -10 -5 0 -10 5 -10 10 0 6 5
10 10 10 6 0 10 -4 10 -10z m5760 -31 c0 -5 -7 -9 -15 -9 -15 0 -20 12 -9 23
8 8 24 -1 24 -14z m387 -11 c-3 -8 -6 -5 -6 6 -1 11 2 17 5 13 3 -3 4 -12 1
-19z m-2937 -188 c0 -5 -4 -10 -10 -10 -5 0 -10 5 -10 10 0 6 5 10 10 10 6 0
10 -4 10 -10z m-190 -60 c0 -5 -4 -10 -10 -10 -5 0 -10 5 -10 10 0 6 5 10 10
10 6 0 10 -4 10 -10z m2725 -60 c3 -5 1 -10 -4 -10 -6 0 -11 5 -11 10 0 6 2
10 4 10 3 0 8 -4 11 -10z m-2825 -40 c0 -5 -2 -10 -4 -10 -3 0 -8 5 -11 10 -3
6 -1 10 4 10 6 0 11 -4 11 -10z m2710 -101 c0 -6 -4 -7 -10 -4 -5 3 -10 11
-10 16 0 6 5 7 10 4 6 -3 10 -11 10 -16z m-680 -3 c0 -3 -4 -8 -10 -11 -5 -3
-10 -1 -10 4 0 6 5 11 10 11 6 0 10 -2 10 -4z m-30 -146 c0 -5 -5 -10 -11 -10
-5 0 -7 5 -4 10 3 6 8 10 11 10 2 0 4 -4 4 -10z m240 -116 c0 -8 -5 -12 -10
-9 -6 4 -8 11 -5 16 9 14 15 11 15 -7z m157 -36 c-3 -8 -6 -5 -6 6 -1 11 2 17
5 13 3 -3 4 -12 1 -19z m1853 12 c0 -5 -4 -10 -10 -10 -5 0 -10 5 -10 10 0 6
5 10 10 10 6 0 10 -4 10 -10z m-225 -30 c3 -5 1 -10 -4 -10 -6 0 -11 5 -11 10
0 6 2 10 4 10 3 0 8 -4 11 -10z m-4035 -20 c0 -5 -5 -10 -11 -10 -5 0 -7 5 -4
10 3 6 8 10 11 10 2 0 4 -4 4 -10z m133 -31 c-17 -17 -37 -1 -22 17 8 10 15
12 23 4 7 -7 7 -13 -1 -21z m2687 27 c0 -3 -4 -8 -10 -11 -5 -3 -10 -1 -10 4
0 6 5 11 10 11 6 0 10 -2 10 -4z m650 -20 c0 -3 -4 -8 -10 -11 -5 -3 -10 -1
-10 4 0 6 5 11 10 11 6 0 10 -2 10 -4z m-3420 -67 c0 -6 -4 -7 -10 -4 -5 3
-10 11 -10 16 0 6 5 7 10 4 6 -3 10 -11 10 -16z m1960 0 c0 -6 -4 -7 -10 -4
-5 3 -10 11 -10 16 0 6 5 7 10 4 6 -3 10 -11 10 -16z m2218 -46 c2 -8 -5 -13
-17 -13 -12 0 -21 6 -21 16 0 18 31 15 38 -3z m-1488 -14 c0 -5 -4 -9 -10 -9
-5 0 -10 7 -10 16 0 8 5 12 10 9 6 -3 10 -10 10 -16z m1240 1 c0 -5 -7 -10
-15 -10 -8 0 -15 5 -15 10 0 6 7 10 15 10 8 0 15 -4 15 -10z m-4490 -81 c0 -6
-4 -7 -10 -4 -5 3 -10 11 -10 16 0 6 5 7 10 4 6 -3 10 -11 10 -16z m-153 -15
c-9 -9 -28 6 -21 18 4 6 10 6 17 -1 6 -6 8 -13 4 -17z"/>
<path d="M7457 2114 c-1 -1 -914 -4 -2029 -8 -1116 -3 -2349 -9 -2740 -12
-392 -4 -1149 -9 -1683 -13 l-970 -6 -3 -1037 -2 -1038 5074 0 5073 0 6 328
c3 180 7 590 7 912 1 322 3 650 3 730 l2 144 -1368 1 c-752 0 -1369 0 -1370
-1z m-2162 -344 c3 -5 1 -10 -4 -10 -6 0 -11 5 -11 10 0 6 2 10 4 10 3 0 8 -4
11 -10z m-1555 -630 c0 -5 -7 -10 -15 -10 -8 0 -15 5 -15 10 0 6 7 10 15 10 8
0 15 -4 15 -10z m-35 -220 c3 -5 1 -10 -4 -10 -6 0 -11 5 -11 10 0 6 2 10 4
10 3 0 8 -4 11 -10z m4815 -200 c0 -5 -4 -10 -10 -10 -5 0 -10 5 -10 10 0 6 5
10 10 10 6 0 10 -4 10 -10z m95 -590 c-3 -5 -10 -10 -16 -10 -5 0 -9 5 -9 10
0 6 7 10 16 10 8 0 12 -4 9 -10z"/>
</g>
</svg>
