<svg version="1.1" xmlns="http://www.w3.org/2000/svg" viewBox="0 0 156.6974975350954 153.06915817644017" width="156.6974975350954" height="153.06915817644017">
  <!-- svg-source:excalidraw -->
  
  </defs>
  <rect x="0" y="0" width="156.6974975350954" height="153.06915817644017" fill="#ffffff"></rect><g stroke-linecap="round" transform="translate(10 10) rotate(0 68.3487487675477 66.53457908822008)"><path d="M-0.29 67.33 C-0.29 67.33, -0.29 67.33, -0.29 67.33 M-0.29 67.33 C-0.29 67.33, -0.29 67.33, -0.29 67.33 M5.59 73.63 C22.55 53.15, 37.55 34.84, 66.44 0.1 M5.15 72.52 C27.5 48.92, 47.98 23.17, 68 0.43 M13.06 76.74 C28.34 58.2, 46.95 35.97, 75.66 5.44 M10.79 78.68 C32.29 54.56, 52.88 30.13, 75.04 4.74 M16.9 85.32 C33.76 62.55, 53.82 41.74, 79.41 11.68 M17.97 83.57 C35.68 63.12, 53.47 40.37, 80.26 10.97 M23.5 90 C43.49 65.22, 66.96 39.3, 85.64 17.62 M24.12 88.57 C38.35 70.41, 54.36 53.49, 86.61 16.41 M30.38 96.08 C52.82 67.35, 78.72 37.51, 91.66 21.97 M28.41 94.86 C45.48 76.12, 62.53 56.46, 92.55 21.92 M35.17 102.3 C55.79 75.02, 78.61 48.27, 99.28 28.85 M34.2 100.69 C60.48 72.47, 84.18 43.75, 96.63 27.91 M40.54 107.51 C65.85 76.45, 90.57 48.38, 103.03 34.79 M41.56 106.57 C59.63 85.68, 76.08 64.46, 103.21 33.81 M44.63 112.98 C66.64 88.82, 84.99 66.5, 107.9 39.72 M45.08 112.08 C60.42 93.54, 76.06 76.65, 109.75 39.64 M53.32 117.4 C66.29 102.02, 81.94 83.83, 113.6 45.96 M51.74 117.33 C68.66 96.48, 86.02 76.56, 114.53 43.42 M58.59 123.1 C76.16 99.74, 95.6 80.69, 120.3 49.28 M58.7 121.76 C79.62 95.59, 102.88 71.51, 119.9 50.76 M63.54 126.84 C77.99 113.65, 88.45 99.04, 124.9 53.8 M63.86 127.31 C77.73 110.39, 91.75 94.46, 126.04 56.27 M71.3 134.49 C91.32 105.96, 118.56 79.4, 130.77 63.11 M70.27 133.76 C92.53 107.83, 113.03 83.11, 132.22 61.16" stroke="#7950f2" stroke-width="1" fill="none"></path><path d="M69.56 -0.47 C89.71 19.72, 107.17 38.98, 137.36 66.43 M69.24 -0.64 C89.08 20.78, 107.52 38.98, 137.36 67.32 M137.58 66.88 C117.04 89.9, 95.02 109.13, 69.88 131.48 M136.79 67.52 C114.83 87.58, 94.62 109.76, 69.98 133.4 M69.21 132.36 C52.94 119.66, 39.27 104.91, 1.05 68.6 M68.58 133.01 C51.07 116.6, 35.19 99.99, 0.93 67.16 M-0.85 65.87 C27.8 41.64, 53.81 15.44, 70.64 -0.22 M-0.2 66.26 C17.02 50.04, 33.61 34.14, 68.94 0.39" stroke="#000000" stroke-width="2" fill="none"></path></g></svg>